# Blender 4.4.3
# www.blender.org
mtllib rollerCoasterModel.mtl
o Cube
v 1.000000 1.000000 -2.114654
v 1.000000 -1.000000 -2.114654
v 1.000000 1.000000 2.114654
v 1.000000 -1.000000 2.114654
v -1.000000 1.000000 -2.114654
v -1.000000 -1.000000 -2.114654
v -1.000000 1.000000 2.114654
v -1.000000 -1.000000 2.114654
v 0.850644 1.000000 -1.798818
v 0.850644 1.000000 1.798818
v -0.850644 1.000000 -1.798818
v -0.850644 1.000000 1.798818
v 0.850644 -0.871703 -1.798818
v 0.850644 -0.871703 1.798818
v -0.850644 -0.871703 -1.798818
v -0.850644 -0.871703 1.798818
v -0.850644 0.175449 -1.798818
v 0.850644 0.175449 -1.798818
v -0.850644 -0.872684 -1.798818
v 0.850644 -0.872684 -1.798818
v -0.850644 0.175449 -0.226528
v 0.850644 0.175449 -0.226528
v -0.850644 -0.872684 -0.226528
v 0.850644 -0.872684 -0.226528
v -0.406346 -0.406346 3.752245
v -0.406346 0.406346 3.752245
v 0.406346 0.406346 3.752245
v 0.406346 -0.406346 3.752245
v -0.187584 -0.187584 4.449571
v -0.187584 0.187584 4.449571
v 0.187584 0.187584 4.449571
v 0.187584 -0.187584 4.449571
v -0.114483 -0.114483 4.691956
v -0.000730 -0.000730 4.978083
v -0.000730 0.000730 4.978083
v -0.114483 0.114483 4.691956
v 0.114483 0.114483 4.691956
v 0.000730 0.000730 4.978083
v 0.000730 -0.000730 4.978083
v 0.114483 -0.114483 4.691956
v 1.000000 -1.000000 -2.114654
v 1.000000 -1.000000 2.114654
v 0.800000 -1.000000 -2.114654
v 0.800000 -1.000000 2.114654
v 1.000000 -1.150000 -2.114654
v 1.000000 -1.150000 2.114654
v 0.800000 -1.150000 -2.114654
v 0.800000 -1.150000 2.114654
v -0.985000 -1.000000 -2.114654
v -0.985000 -1.000000 2.114654
v -0.715000 -1.000000 -2.114654
v -0.715000 -1.000000 2.114654
v -0.985000 -1.150000 -2.114654
v -0.985000 -1.150000 2.114654
v -0.715000 -1.150000 -2.114654
v -0.715000 -1.150000 2.114654
vn -0.0000 1.0000 -0.0000
vn -0.0000 0.9401 0.3408
vn -1.0000 -0.0000 -0.0000
vn 1.0000 -0.0000 -0.0000
vn -0.0000 -0.0000 -1.0000
vn -0.0000 -0.0000 1.0000
vn -0.0000 -1.0000 -0.0000
vn -0.0000 0.9541 0.2993
vn 0.9401 -0.0000 0.3408
vn -0.9401 -0.0000 0.3408
vn -0.0000 -0.9401 0.3408
vn -0.0000 0.9574 0.2887
vn -0.9541 -0.0000 0.2993
vn -0.0000 -0.9541 0.2993
vn 0.9541 -0.0000 0.2993
vn -0.0000 -0.9574 0.2887
vn 0.9574 -0.0000 0.2887
vn -0.0000 -0.0001 1.0000
vn -0.9293 -0.0000 0.3694
vn 0.9293 -0.0000 0.3694
vn -0.0000 0.9293 0.3694
vn -0.0000 -0.9293 0.3694
vn -0.9574 -0.0000 0.2887
vt 0.625000 1.000000
vt 0.625000 0.750000
vt 0.375000 0.000000
vt 0.625000 0.000000
vt 0.625000 0.250000
vt 0.375000 0.250000
vt 0.125000 0.750000
vt 0.375000 0.500000
vt 0.625000 0.500000
vt 0.375000 0.750000
vt 0.875000 0.500000
vt 0.875000 0.750000
vt 0.498779 0.873779
vt 0.501221 0.873779
vt 0.501221 0.876221
vt 0.498779 0.876221
vt 0.375000 1.000000
vt 0.125000 0.500000
s 0
usemtl Material
f 7/1/1 3/2/1 10/2/1 12/1/1
f 3/2/2 7/1/2 26/1/2 27/2/2
f 8/3/3 7/4/3 5/5/3 6/6/3
f 44/7/1 8/7/1 50/7/1 52/7/1
f 2/8/4 1/9/4 3/2/4 4/10/4
f 6/6/5 5/5/5 1/9/5 2/8/5
f 9/9/6 11/5/6 17/5/6 18/9/6
f 5/5/1 7/4/1 12/4/1 11/5/1
f 3/2/1 1/9/1 9/9/1 10/2/1
f 1/9/1 5/5/1 11/5/1 9/9/1
f 13/9/1 15/11/1 16/12/1 14/2/1
f 10/2/3 9/9/3 13/9/3 14/2/3
f 11/5/4 12/4/4 16/4/4 15/5/4
f 12/1/5 10/2/5 14/2/5 16/1/5
f 18/9/1 17/5/1 21/5/1 22/9/1
f 11/5/6 15/5/6 19/5/6 17/5/6
f 13/9/6 9/9/6 18/9/6 20/9/6
f 15/11/5 13/9/5 20/9/5 19/11/5
f 22/9/6 21/5/6 23/5/6 24/9/6
f 20/9/4 18/9/4 22/9/4 24/9/4
f 19/11/7 20/9/7 24/9/7 23/11/7
f 17/5/3 19/5/3 23/5/3 21/5/3
f 27/2/8 26/1/8 30/1/8 31/2/8
f 4/10/9 3/2/9 27/2/9 28/10/9
f 7/4/10 8/3/10 25/3/10 26/4/10
f 8/7/11 4/10/11 28/10/11 25/7/11
f 31/2/12 30/1/12 36/1/12 37/2/12
f 26/4/13 25/3/13 29/3/13 30/4/13
f 25/7/14 28/10/14 32/10/14 29/7/14
f 28/10/15 27/2/15 31/2/15 32/10/15
f 29/7/16 32/10/16 40/10/16 33/7/16
f 32/10/17 31/2/17 37/2/17 40/10/17
f 39/13/18 38/14/18 35/15/18 34/16/18
f 34/16/19 35/15/19 36/1/19 33/17/19
f 38/14/20 39/13/20 40/10/20 37/2/20
f 37/2/21 36/1/21 35/15/21 38/14/21
f 33/17/22 40/10/22 39/13/22 34/16/22
f 30/4/23 29/3/23 33/3/23 36/4/23
f 41/8/4 42/10/4 46/10/4 45/8/4
f 2/8/1 4/10/1 42/10/1 41/8/1
f 6/6/1 2/8/1 41/8/1 43/6/1
f 4/10/1 8/7/1 44/7/1 42/10/1
f 47/18/7 45/8/7 46/10/7 48/7/7
f 43/6/5 41/8/5 45/8/5 47/6/5
f 42/10/6 44/7/6 48/7/6 46/10/6
f 44/3/3 43/6/3 47/6/3 48/3/3
f 49/6/5 51/6/5 55/6/5 53/6/5
f 8/3/7 6/6/7 49/6/7 50/3/7
f 6/6/1 43/6/1 51/6/1 49/6/1
f 43/6/7 44/3/7 52/3/7 51/6/7
f 54/3/7 53/6/7 55/6/7 56/3/7
f 50/3/3 49/6/3 53/6/3 54/3/3
f 52/7/6 50/7/6 54/7/6 56/7/6
f 51/6/4 52/3/4 56/3/4 55/6/4
